# xmcd
#
# Track frame offsets:
#	150
#	45365
#	60387
#	85357
#	96550
#	119995
#	140657
#	153787
#	168482
#	190815
#	227037
#	240530
#
# Disc length: 3843 seconds
#
# Revision: 1
# Processed by: cddbd v1.5.1PL0 Copyright (c) Steve Scherf et al.
# Submitted via: CDex 1.50Beta5
#
DISCID=a10f010c
DTITLE=鮫島有美子 - さとうきび畑
DYEAR=1900
DGENRE=Folk
TTITLE0=さとうきび畑
TTITLE1=椰子の実
TTITLE2=長崎の鐘
TTITLE3=花はどこへ行った
TTITLE4=ともしび
TTITLE5=死んだ男の残したものは
TTITLE6=青いプラトーク
TTITLE7=ロンドンデリーの歌
TTITLE8=鶴
TTITLE9=約束
TTITLE10=リンゴの歌
TTITLE11=さとうきび畑
EXTD=
EXTT0=
EXTT1=
EXTT2=
EXTT3=
EXTT4=
EXTT5=
EXTT6=
EXTT7=
EXTT8=
EXTT9=
EXTT10=
EXTT11=
PLAYORDER=
